# xmcd CD database file
#
# Track frame offsets:
#	150
#	14258
#	23241
#	35573
#	46427
#	57678
#	71201
#	84812
#	97418
#	110819
#	124333
#	133550
#	148436
#	161245
#	171009
#	183652
#	194325
#	207150
#	218859
#	230953
#	246427
#	259501
#	272345
#	293478
#	305866
#	320078
#	335045
#	348146
#	360905
#	374599
#
# Disc length: 5181 seconds
#
# Revision: 0
# Processed by: cddbd v1.5.2PL0 Copyright (c) Steve Scherf et al.
# Submitted via: CDex 1.51
#
DISCID=f3143b1e
DTITLE=VA - Der Jazz in Deutschland - Vol 2 CD 6 - die Swing-Jahre
DYEAR=2008
DGENRE=Jazz
TTITLE0=Starlight Avenue
TTITLE1=That's my rhythm
TTITLE2=Boogie Woogie in Berlin
TTITLE3=Skyliner
TTITLE4=Dob's boogie
TTITLE5=Fan it
TTITLE6=Apple honey
TTITLE7=Nobody's sweetheart
TTITLE8=Hodge podge
TTITLE9=Creole love call
TTITLE10=Helmy's Be-bop Nr.1
TTITLE11=Air lift stomp
TTITLE12=Wer mich liebt, lacht doch
TTITLE13=Crazy rhythm
TTITLE14=Honey dripper
TTITLE15=How high the moon
TTITLE16=Cocktail swing
TTITLE17=You rascal you
TTITLE18=Festival riff
TTITLE19=Opus in scat
TTITLE20=Derby boogie
TTITLE21=Is you is or is you ain't my baby
TTITLE22=Re-disc bounce
TTITLE23=Tabu jump
TTITLE24=The mess is here
TTITLE25=That's right, what's wrong
TTITLE26=Fragen
TTITLE27=Moderne Harlekinade
TTITLE28=Blues on Amiga
TTITLE29=Fips' blues
EXTD=YEAR: 2008
EXTT0=
EXTT1=
EXTT2=
EXTT3=
EXTT4=
EXTT5=
EXTT6=
EXTT7=
EXTT8=
EXTT9=
EXTT10=
EXTT11=
EXTT12=
EXTT13=
EXTT14=
EXTT15=
EXTT16=
EXTT17=
EXTT18=
EXTT19=
EXTT20=
EXTT21=
EXTT22=
EXTT23=
EXTT24=
EXTT25=
EXTT26=
EXTT27=
EXTT28=
EXTT29=
PLAYORDER=
